<?xml version="1.0" standalone="no"?>
<!DOCTYPE svg PUBLIC "-//W3C//DTD SVG 1.1//EN" "http://www.w3.org/Graphics/SVG/1.1/DTD/svg11.dtd" >
<svg xmlns="http://www.w3.org/2000/svg">
<metadata>Generated by IcoMoon</metadata>
<defs>
<font id="icomoon" horiz-adv-x="1024">
<font-face units-per-em="1024" ascent="960" descent="-64" />
<missing-glyph horiz-adv-x="1024" />
<glyph unicode="&#x20;" horiz-adv-x="512" d="" />
<glyph unicode="&#xe900;" glyph-name="cartDefault" d="M906.73 197.921h-771.473l-134.99 695.385h1041.497zM346.023 73.127c0-42.637-34.564-77.201-77.201-77.201s-77.201 34.564-77.201 77.201c0 42.637 34.564 77.201 77.201 77.201s77.201-34.564 77.201-77.201zM853.838 73.127c0-42.637-34.564-77.201-77.201-77.201s-77.201 34.564-77.201 77.201c0 42.637 34.564 77.201 77.201 77.201s77.201-34.564 77.201-77.201z" />
<glyph unicode="&#xe901;" glyph-name="child" d="M745.586 414.635h-469.333v156.444l-116.622-116.622-125.156 125.156 238.933 238.933v8.533l14.222 2.844h133.689v-54.044h173.511v54.044h147.911v-8.533l241.778-241.778-125.156-125.156-116.622 116.622v-156.444zM307.541 443.079h412.444v199.111l145.067-145.067 85.333 85.333-221.867 221.867h-99.556v-54.044h-230.4v54.044h-96.711l-221.867-221.867 85.333-85.333 145.067 145.067v-199.111zM358.741 56.235l-227.556 76.8 150.756 256h457.956l150.756-256-227.556-76.8-153.6 173.511-150.756-173.511zM512.341 272.412l162.133-184.889 176.356 59.733-125.156 210.489h-423.822l-125.156-210.489 176.356-59.733 159.289 184.889z" />
<glyph unicode="&#xe902;" glyph-name="inner" d="M653.454 157.867h-284.444l-2.844 11.378c-17.067 119.467-93.867 213.333-170.667 310.044l-8.533 11.378c-36.978 45.511-82.489 82.489-136.533 110.933l-5.689 5.689v139.378h938.667v-139.378l-8.533-2.844c-54.044-25.6-99.556-62.578-136.533-110.933l-8.533-11.378c-79.644-96.711-153.6-190.578-170.667-310.044l-5.689-14.222zM394.61 186.311h233.244c22.756 122.311 96.711 213.333 176.356 312.889l8.533 11.378c36.978 48.356 85.333 85.333 139.378 113.778v93.867h-878.933v-93.867c54.044-28.444 99.556-65.422 139.378-113.778l8.533-11.378c76.8-96.711 153.6-190.578 173.511-312.889z" />
<glyph unicode="&#xe903;" glyph-name="man" d="M701.81 41.244h-381.156l-56.889 392.533-113.778-201.956h-113.778l196.267 483.556 182.044 34.133 25.6 82.489h147.911l25.6-85.333 182.044-31.289 196.267-483.556h-116.622l-113.778 201.956-59.733-392.533zM343.41 69.689h332.8l62.578 449.422 147.911-258.844h59.733l-173.511 432.356-182.044 31.289-25.6 79.644h-108.089l-25.6-76.8-182.044-34.133-173.511-432.356h56.889l147.911 258.844 62.578-449.422z" />
<glyph unicode="&#xe904;" glyph-name="manShoes" d="M995.442 203.463h-967.111c-8.533 0-14.222 5.689-14.222 14.222v110.933c0 8.533 5.689 14.222 14.222 14.222h967.111c8.533 0 14.222-5.689 14.222-14.222v-110.933c0-8.533-5.689-14.222-14.222-14.222zM42.553 231.908h938.667v82.489h-938.667v-82.489zM995.442 314.396h-967.111c-2.844 0-8.533 2.844-11.378 5.689s-2.844 5.689-2.844 11.378c2.844 91.022 62.578 170.667 147.911 199.111l389.689 159.289c2.844 0 2.844 0 5.689 0h85.333c8.533 0 14.222-5.689 14.222-14.222 0-68.267 54.044-122.311 122.311-122.311s122.311 54.044 122.311 122.311c0 8.533 5.689 14.222 14.222 14.222h82.489c8.533 0 14.222-5.689 14.222-14.222v-347.022c-2.844-8.533-8.533-14.222-17.067-14.222zM45.397 342.841h938.667v318.578h-54.044c-8.533-76.8-71.111-136.533-150.756-136.533s-142.222 59.733-150.756 136.533h-68.267l-386.844-159.289c-71.111-25.6-122.311-88.178-128-159.289zM585.842 450.93c-2.844 0-8.533 0-11.378 2.844l-156.444 156.444c-5.689 5.689-5.689 14.222 0 19.911s14.222 5.689 19.911 0l156.444-156.444c5.689-5.689 5.689-14.222 0-19.911 0 0-2.844-2.844-8.533-2.844zM429.397 413.952c-2.844 0-8.533 0-11.378 2.844l-133.689 133.689c-5.689 5.689-5.689 14.222 0 19.911s14.222 5.689 19.911 0l133.689-133.689c5.689-5.689 5.689-14.222 0-19.911 0-2.844-5.689-2.844-8.533-2.844z" />
<glyph unicode="&#xe905;" glyph-name="sports" horiz-adv-x="1052" d="M792.292 365.056h-534.756v159.289h534.756v-159.289zM285.98 393.5h477.867v102.4h-477.867v-102.4zM879.275 183.467h-113.778v534.756h113.778v-534.756zM793.941 211.911h56.889v477.867h-56.889v-477.867zM964.608 246.044h-113.778v409.6h113.778v-409.6zM879.275 274.489h56.889v352.711h-56.889v-352.711zM1049.941 305.778h-113.778v292.978h113.778v-292.978zM964.608 334.222h56.889v236.089h-56.889v-236.089zM284.416 183.467h-113.778v534.756h113.778v-534.756zM199.083 211.911h56.889v477.867h-56.889v-477.867zM199.083 246.044h-113.778v409.6h113.778v-409.6zM113.749 274.489h56.889v352.711h-56.889v-352.711zM113.749 305.778h-113.778v292.978h113.778v-292.978zM28.416 334.222h56.889v236.089h-56.889v-236.089z" />
<glyph unicode="&#xe906;" glyph-name="woman" d="M932.21 32.711h-839.111l230.4 580.267-59.733 247.467h176.356v-65.422h145.067v65.422h176.356l-59.733-247.467 230.4-580.267zM132.921 61.156h756.622l-219.022 551.822 54.044 219.022h-113.778v-65.422h-201.956v65.422h-113.778l54.044-219.022-216.178-551.822z" />
<glyph unicode="&#xe907;" glyph-name="womanShoes" d="M977.721 78.222h-91.022l-39.822 275.911-327.111-238.933c-31.289-22.756-71.111-36.978-110.933-36.978 0 0 0 0 0 0h-403.911l11.378 19.911c68.267 125.156 187.733 210.489 327.111 236.089l34.133 5.689 477.867 463.644 25.6-14.222c122.311-71.111 164.978-230.4 96.711-355.556v-355.556zM909.454 106.667h39.822v338.489l2.844 2.844c62.578 110.933 25.6 256-85.333 321.422v0l-5.689 2.844-469.333-455.111-42.667-8.533c-122.311-22.756-230.4-96.711-295.822-201.956h352.711c0 0 0 0 0 0 34.133 0 68.267 11.378 93.867 31.289l366.933 267.378 42.667-298.667z" />
<glyph unicode="&#xe908;" glyph-name="cartSelected" d="M881.877 216.747h-739.328l-129.365 666.411h998.101zM344.533 97.152c0-40.86-33.124-73.984-73.984-73.984s-73.984 33.124-73.984 73.984c0 40.86 33.124 73.984 73.984 73.984s73.984-33.124 73.984-73.984zM831.189 97.152c0-40.86-33.124-73.984-73.984-73.984s-73.984 33.124-73.984 73.984c0 40.86 33.124 73.984 73.984 73.984s73.984-33.124 73.984-73.984z" />
<glyph unicode="&#xe909;" glyph-name="homeDefault" horiz-adv-x="1021" d="M507.175 960l-507.175-443.33h187.778v-580.801h213.979v264.461h213.979v-264.461h217.254v580.801h187.778z" />
<glyph unicode="&#xe90a;" glyph-name="homeSelected" horiz-adv-x="1021" d="M507.175 960l-507.175-443.33h187.778v-580.801h213.979v264.461h213.979v-264.461h217.254v580.801h187.778z" />
<glyph unicode="&#xe90b;" glyph-name="mineDefault" horiz-adv-x="886" d="M712.917 691.968c0-148.030-120.002-268.032-268.032-268.032s-268.032 120.002-268.032 268.032c0 148.030 120.002 268.032 268.032 268.032s268.032-120.002 268.032-268.032zM886.187-64c-2.459 242.86-199.906 438.788-443.115 438.788s-440.656-195.928-443.113-438.555l-0.002-0.233z" />
<glyph unicode="&#xe90c;" glyph-name="mineSelected" horiz-adv-x="886" d="M712.917 691.968c0-148.030-120.002-268.032-268.032-268.032s-268.032 120.002-268.032 268.032c0 148.030 120.002 268.032 268.032 268.032s268.032-120.002 268.032-268.032zM886.187-64c-2.459 242.86-199.906 438.788-443.115 438.788s-440.656-195.928-443.113-438.555l-0.002-0.233z" />
<glyph unicode="&#xe90d;" glyph-name="selectFull" d="M512 960c-281.6 0-512-230.4-512-512s230.4-512 512-512 512 230.4 512 512-230.4 512-512 512zM424.96 238.080l-163.84 163.84 40.96 35.84 122.88-128 271.36 271.36 35.84-35.84-307.2-307.2z" />
<glyph unicode="&#xe90e;" glyph-name="after" d="M512 960c-282.77 0-512-229.23-512-512v0c0-282.77 229.23-512 512-512v0c282.77 0 512 229.23 512 512v0c0 282.77-229.23 512-512 512v0zM705.229 491.725h-164.71v-103.066h112.64c18.606 0 33.69-15.083 33.69-33.69v0c0-18.606-15.083-33.69-33.69-33.69v0h-112.64v-163.84c0-18.606-15.083-33.69-33.69-33.69v0c-18.606 0-33.69 15.083-33.69 33.69v0 163.84h-102.4c-18.606 0-33.69 15.083-33.69 33.69v0c0 18.606 15.083 33.69 33.69 33.69v0h102.4v103.066h-154.317c-18.606 0-33.69 15.083-33.69 33.69v0c0 18.606 15.083 33.69 33.69 33.69h135.629l-122.214 159.232c-4.34 5.614-6.956 12.752-6.956 20.501 0 10.841 5.12 20.485 13.074 26.648l0.077 0.057c5.62 4.355 12.77 6.981 20.533 6.981 10.852 0 20.505-5.131 26.666-13.098l0.058-0.078 121.19-157.901 121.19 157.901c6.22 8.031 15.865 13.151 26.705 13.151 7.749 0 14.887-2.616 20.579-7.014l-0.078 0.058c8.031-6.22 13.151-15.865 13.151-26.705 0-7.749-2.616-14.887-7.014-20.579l0.058 0.078-122.214-159.232h145.971c18.606 0 33.69-15.083 33.69-33.69v0c0-18.606-15.083-33.69-33.69-33.69v0z" />
<glyph unicode="&#xe90f;" glyph-name="back" d="M512 960v0c-282.77 0-512-229.23-512-512v0 0c0-282.77 229.23-512 512-512v0 0c282.77 0 512 229.23 512 512v0 0c0 282.77-229.23 512-512 512v0zM665.293 223.642h-318.72c-14.202 0.001-26.351 8.79-31.306 21.225l-0.080 0.227c-1.45 3.621-2.291 7.818-2.291 12.212 0 9.803 4.187 18.627 10.869 24.784l0.024 0.021 134.246 122.88c5.973 5.486 13.972 8.848 22.757 8.848 9.804 0 18.63-4.188 24.786-10.872l0.022-0.024c5.501-5.977 8.873-13.987 8.873-22.785 0-9.816-4.198-18.652-10.897-24.809l-70.475-64.636h232.141c83.325 0.087 150.85 67.612 150.938 150.929v0.008c-0.087 83.325-67.612 150.85-150.929 150.938h-318.728c-83.325-0.087-150.85-67.612-150.938-150.929v-0.008c0-18.606-15.083-33.69-33.69-33.69v0c-18.606 0-33.69 15.083-33.69 33.69v0c0.146 120.515 97.803 218.171 218.303 218.317h318.734c120.515-0.146 218.171-97.803 218.317-218.303v-0.014c-0.262-120.408-97.845-217.938-218.249-218.112h-0.017z" />
<glyph unicode="&#xe910;" glyph-name="cart" d="M892.928 149.291h-585.088c-24.704 0.177-45.235 17.823-49.866 41.189l-0.054 0.325-108.928 576.853c-13.219 69.266-66.471 123.177-134.31 137.194l-1.114 0.192c-8.651 0.908-15.336 8.162-15.336 16.979 0 9.426 7.641 17.067 17.067 17.067 1.804 0 3.542-0.28 5.175-0.799l-0.121 0.033c82.537-16.958 146.295-81.461 161.928-163.062l0.206-1.29 108.672-576.768c1.57-7.905 8.434-13.788 16.679-13.824h585.092c8.236 0.032 15.095 5.894 16.664 13.672l0.018 0.109 79.232 414.848c0.769 3.836 1.21 8.245 1.21 12.757 0 37.491-30.392 67.883-67.883 67.883-0.005 0-0.010 0-0.016 0h-661.332c-9.426 0-17.067 7.641-17.067 17.067s7.641 17.067 17.067 17.067h661.333c0.005 0 0.012 0 0.018 0 56.248 0 101.845-45.598 101.845-101.845 0-6.761-0.659-13.368-1.916-19.76l0.106 0.645-79.232-414.848c-4.622-23.807-25.244-41.555-50.034-41.685h-0.014zM360.363-46.251c-49.32 0-89.301 39.982-89.301 89.301s39.982 89.301 89.301 89.301c49.32 0 89.301-39.982 89.301-89.301v0c-0.169-49.252-40.050-89.132-89.285-89.301h-0.016zM360.363 98.389c-30.633 0-55.467-24.833-55.467-55.467s24.833-55.467 55.467-55.467c30.633 0 55.467 24.833 55.467 55.467v0c0 30.633-24.833 55.467-55.467 55.467v0zM840.576-46.251c-49.32 0-89.301 39.982-89.301 89.301s39.982 89.301 89.301 89.301c49.32 0 89.301-39.982 89.301-89.301v0c-0.169-49.252-40.050-89.132-89.285-89.301h-0.016zM840.576 98.389c-30.633 0-55.467-24.833-55.467-55.467s24.833-55.467 55.467-55.467c30.633 0 55.467 24.833 55.467 55.467v0c0 30.633-24.833 55.467-55.467 55.467v0z" />
<glyph unicode="&#xe911;" glyph-name="setting" d="M617.574-64h-211.149c-11.48 0-20.787 9.307-20.787 20.787v0 136.243c0.002 0.093 0.002 0.202 0.002 0.311 0 11.311-9.169 20.48-20.48 20.48-0.145 0-0.289-0.002-0.433-0.004h0.022c-5.671-0.025-10.794-2.35-14.488-6.091l-96.309-96.36c-3.71-3.732-8.848-6.042-14.525-6.042-0.059 0-0.119 0-0.178 0.001h0.009c-0.050 0-0.11-0.001-0.169-0.001-5.677 0-10.815 2.31-14.524 6.041l-149.3 149.3c-3.72 3.77-6.017 8.951-6.017 14.669s2.297 10.899 6.019 14.671l96.356 96.305c3.768 3.716 6.101 8.877 6.101 14.584 0 2.908-0.606 5.674-1.698 8.179l0.051-0.132c-3.121 7.57-10.443 12.801-18.986 12.801-0.075 0-0.15 0-0.226-0.001h-136.232c-11.253 0.142-20.338 9.227-20.48 20.466v211.214c0.142 11.253 9.227 20.338 20.466 20.48h136.257c0.064-0.001 0.139-0.001 0.214-0.001 8.543 0 15.865 5.231 18.936 12.665l0.050 0.136c1.031 2.363 1.632 5.117 1.632 8.011 0 5.699-2.328 10.854-6.084 14.567l-96.36 96.309c-3.72 3.77-6.017 8.951-6.017 14.669s2.297 10.899 6.019 14.671l149.297 149.297c3.715 3.763 8.873 6.093 14.576 6.093 0.042 0 0.083 0 0.125 0h-0.006c0.035 0 0.077 0 0.119 0 5.702 0 10.86-2.331 14.574-6.091l96.309-96.36c3.696-3.743 8.819-6.068 14.485-6.093h0.005c0.123-0.003 0.267-0.004 0.412-0.004 11.311 0 20.48 9.169 20.48 20.48 0 0.109-0.001 0.219-0.003 0.328v-0.016 136.243c0.144 11.342 9.372 20.48 20.734 20.48 0.019 0 0.037 0 0.056 0h211.146c11.311 0 20.48-9.169 20.48-20.48v0-136.243c-0.002-0.093-0.002-0.202-0.002-0.311 0-11.311 9.169-20.48 20.48-20.48 0.145 0 0.289 0.002 0.433 0.004h-0.022c5.671 0.025 10.794 2.35 14.488 6.091l96.309 96.36c3.715 3.763 8.873 6.093 14.576 6.093 0.042 0 0.083 0 0.125 0h-0.006c0.035 0 0.077 0 0.119 0 5.702 0 10.86-2.331 14.574-6.091l149.301-149.301c3.72-3.77 6.017-8.951 6.017-14.669s-2.297-10.899-6.019-14.671l-96.356-96.305c-3.758-3.715-6.086-8.87-6.086-14.569 0-2.894 0.6-5.647 1.683-8.143l-0.051 0.132c3.121-7.57 10.443-12.801 18.986-12.801 0.075 0 0.15 0 0.226 0.001h136.232c11.253-0.142 20.338-9.227 20.48-20.466v-211.214c0-11.311-9.169-20.48-20.48-20.48v0h-136.243c-0.064 0.001-0.139 0.001-0.214 0.001-8.543 0-15.865-5.231-18.936-12.665l-0.050-0.136c-1.041-2.373-1.647-5.139-1.647-8.047 0-5.706 2.334-10.868 6.099-14.581l96.36-96.309c3.72-3.77 6.017-8.951 6.017-14.669s-2.297-10.899-6.019-14.671l-149.297-149.297c-3.71-3.732-8.848-6.042-14.525-6.042-0.059 0-0.119 0-0.178 0.001h0.009c-0.050 0-0.11-0.001-0.169-0.001-5.677 0-10.815 2.31-14.524 6.041l-96.308 96.359c-3.696 3.743-8.819 6.068-14.485 6.093h-0.005c-0.123 0.003-0.267 0.004-0.412 0.004-11.311 0-20.48-9.169-20.48-20.48 0-0.109 0.001-0.219 0.003-0.328v0.016-136.243c0-0.016 0-0.034 0-0.053 0-11.362-9.138-20.59-20.466-20.734h-0.014zM512 704c-141.314-0.175-255.825-114.685-256-255.983v-0.017c0.146-141.326 114.674-255.854 255.986-256h0.014c141.326 0.146 255.854 114.674 256 255.986v0.014c-0.175 141.314-114.685 255.825-255.983 256h-0.017zM512 243.2c-113.108 0-204.8 91.692-204.8 204.8v0c0 113.108 91.692 204.8 204.8 204.8v0c113.108 0 204.8-91.692 204.8-204.8v0c0-113.108-91.692-204.8-204.8-204.8v0z" />
<glyph unicode="&#xe912;" glyph-name="password" d="M514.867 800.477l-86.007 86.007c-45.412 45.493-108.191 73.636-177.544 73.636s-132.132-28.143-177.54-73.633l-0.004-0.004c-45.493-45.412-73.636-108.191-73.636-177.544s28.143-132.132 73.633-177.54l86.011-86.011-26.161-26.161c-11.183-11.182-18.1-26.631-18.1-43.695s6.917-32.513 18.1-43.695l377.716-377.716c11.182-11.183 26.631-18.1 43.695-18.1s32.513 6.917 43.695 18.1l407.306 407.306c11.183 11.182 18.1 26.631 18.1 43.695s-6.917 32.513-18.1 43.695l-377.716 377.716c-11.182 11.183-26.631 18.1-43.695 18.1s-32.513-6.917-43.695-18.1v0zM178.619 636.244c-17.621 18.421-28.468 43.449-28.468 71.011 0 56.774 46.025 102.799 102.799 102.799 27.562 0 52.59-10.847 71.049-28.504l-0.038 0.036 86.007-86.007-145.393-145.393z" />
<glyph unicode="&#xe913;" glyph-name="phone" d="M775.027-51.764l216.412 151.391c19.767 13.943 32.521 36.683 32.521 62.402 0 21.015-8.514 40.040-22.282 53.816l-97.275 97.275c-13.769 13.732-32.772 22.223-53.757 22.223s-39.988-8.491-53.759-22.225l-105.721-105.721c-4.578-4.584-10.906-7.419-17.896-7.419-4.5 0-8.726 1.175-12.387 3.236l0.127-0.066c-164.96 92.842-297.723 225.588-387.978 385.51l-2.608 5.024c-1.995 3.534-3.17 7.76-3.17 12.26 0 6.99 2.836 13.317 7.419 17.895v0l105.723 105.723c13.732 13.769 22.223 32.772 22.223 53.757s-8.491 39.988-22.225 53.759l-100.243 100.243c-13.775 13.767-32.801 22.281-53.816 22.281-25.719 0-48.459-12.753-62.242-32.281l-0.16-0.24-151.34-216.36c-7.649-10.819-12.226-24.284-12.226-38.817 0-14.967 4.855-28.801 13.075-40.012l-0.133 0.19 195.369-268.633c63.064-86.094 136.675-159.624 220.030-220.63l2.832-1.977 265.254-192.349c10.914-7.863 24.555-12.575 39.296-12.575 14.585 0 28.093 4.613 39.143 12.461l-0.209-0.141z" />
<glyph unicode="&#xe925;" glyph-name="selectEmpty" d="M512.025-38.406c-268.225 0-486.438 218.2-486.438 486.4 0 203.456 125.575 378.137 303.3 450.613-177.713-72.475-303.263-247.15-303.263-450.613 0-268.2 218.2-486.4 486.4-486.4zM512.025-64.006c-282.337 0-512.038 229.681-512.038 512 0 282.313 229.7 511.994 512.038 511.994 282.313 0 511.988-229.681 511.988-511.994 0-282.319-229.675-512-511.988-512zM512.025 908.794c-254.087 0-460.8-206.713-460.8-460.8s206.713-460.8 460.8-460.8c254.088 0 460.8 206.712 460.8 460.8s-206.712 460.8-460.8 460.8z" />
<glyph unicode="&#x1f5db;" glyph-name="bag" d="M837.063 106.667h-648.533v688.356h645.689v-688.356zM216.974 135.111h588.8v631.467h-588.8v-631.467zM643.641 766.578h-261.689v122.311h261.689v-122.311zM410.396 795.022h204.8v65.422h-204.8v-65.422zM407.552 7.111h-105.244v105.244h105.244v-105.244zM330.752 35.556h48.356v48.356h-48.356v-48.356zM723.285 7.111h-105.244v105.244h105.244v-105.244zM643.641 35.556h48.356v48.356h-48.356v-48.356zM342.13 649.074h28.444v-420.978h-28.444v420.978zM498.574 649.074h28.444v-420.978h-28.444v420.978zM655.019 649.074h28.444v-420.978h-28.444v420.978z" />
<glyph unicode="womanShoes" glyph-name="womanShoes" d="M977.721 78.222h-91.022l-39.822 275.911-327.111-238.933c-31.289-22.756-71.111-36.978-110.933-36.978 0 0 0 0 0 0h-403.911l11.378 19.911c68.267 125.156 187.733 210.489 327.111 236.089l34.133 5.689 477.867 463.644 25.6-14.222c122.311-71.111 164.978-230.4 96.711-355.556v-355.556zM909.454 106.667h39.822v338.489l2.844 2.844c62.578 110.933 25.6 256-85.333 321.422v0l-5.689 2.844-469.333-455.111-42.667-8.533c-122.311-22.756-230.4-96.711-295.822-201.956h352.711c0 0 0 0 0 0 34.133 0 68.267 11.378 93.867 31.289l366.933 267.378 42.667-298.667z" />
<glyph unicode="woman" glyph-name="woman" d="M932.21 32.711h-839.111l230.4 580.267-59.733 247.467h176.356v-65.422h145.067v65.422h176.356l-59.733-247.467 230.4-580.267zM132.921 61.156h756.622l-219.022 551.822 54.044 219.022h-113.778v-65.422h-201.956v65.422h-113.778l54.044-219.022-216.178-551.822z" />
<glyph unicode="sports" glyph-name="sports" horiz-adv-x="1052" d="M792.292 365.056h-534.756v159.289h534.756v-159.289zM285.98 393.5h477.867v102.4h-477.867v-102.4zM879.275 183.467h-113.778v534.756h113.778v-534.756zM793.941 211.911h56.889v477.867h-56.889v-477.867zM964.608 246.044h-113.778v409.6h113.778v-409.6zM879.275 274.489h56.889v352.711h-56.889v-352.711zM1049.941 305.778h-113.778v292.978h113.778v-292.978zM964.608 334.222h56.889v236.089h-56.889v-236.089zM284.416 183.467h-113.778v534.756h113.778v-534.756zM199.083 211.911h56.889v477.867h-56.889v-477.867zM199.083 246.044h-113.778v409.6h113.778v-409.6zM113.749 274.489h56.889v352.711h-56.889v-352.711zM113.749 305.778h-113.778v292.978h113.778v-292.978zM28.416 334.222h56.889v236.089h-56.889v-236.089z" />
<glyph unicode="setting" glyph-name="setting" d="M617.574-64h-211.149c-11.48 0-20.787 9.307-20.787 20.787v0 136.243c0.002 0.093 0.002 0.202 0.002 0.311 0 11.311-9.169 20.48-20.48 20.48-0.145 0-0.289-0.002-0.433-0.004h0.022c-5.671-0.025-10.794-2.35-14.488-6.091l-96.309-96.36c-3.71-3.732-8.848-6.042-14.525-6.042-0.059 0-0.119 0-0.178 0.001h0.009c-0.050 0-0.11-0.001-0.169-0.001-5.677 0-10.815 2.31-14.524 6.041l-149.3 149.3c-3.72 3.77-6.017 8.951-6.017 14.669s2.297 10.899 6.019 14.671l96.356 96.305c3.768 3.716 6.101 8.877 6.101 14.584 0 2.908-0.606 5.674-1.698 8.179l0.051-0.132c-3.121 7.57-10.443 12.801-18.986 12.801-0.075 0-0.15 0-0.226-0.001h-136.232c-11.253 0.142-20.338 9.227-20.48 20.466v211.214c0.142 11.253 9.227 20.338 20.466 20.48h136.257c0.064-0.001 0.139-0.001 0.214-0.001 8.543 0 15.865 5.231 18.936 12.665l0.050 0.136c1.031 2.363 1.632 5.117 1.632 8.011 0 5.699-2.328 10.854-6.084 14.567l-96.36 96.309c-3.72 3.77-6.017 8.951-6.017 14.669s2.297 10.899 6.019 14.671l149.297 149.297c3.715 3.763 8.873 6.093 14.576 6.093 0.042 0 0.083 0 0.125 0h-0.006c0.035 0 0.077 0 0.119 0 5.702 0 10.86-2.331 14.574-6.091l96.309-96.36c3.696-3.743 8.819-6.068 14.485-6.093h0.005c0.123-0.003 0.267-0.004 0.412-0.004 11.311 0 20.48 9.169 20.48 20.48 0 0.109-0.001 0.219-0.003 0.328v-0.016 136.243c0.144 11.342 9.372 20.48 20.734 20.48 0.019 0 0.037 0 0.056 0h211.146c11.311 0 20.48-9.169 20.48-20.48v0-136.243c-0.002-0.093-0.002-0.202-0.002-0.311 0-11.311 9.169-20.48 20.48-20.48 0.145 0 0.289 0.002 0.433 0.004h-0.022c5.671 0.025 10.794 2.35 14.488 6.091l96.309 96.36c3.715 3.763 8.873 6.093 14.576 6.093 0.042 0 0.083 0 0.125 0h-0.006c0.035 0 0.077 0 0.119 0 5.702 0 10.86-2.331 14.574-6.091l149.301-149.301c3.72-3.77 6.017-8.951 6.017-14.669s-2.297-10.899-6.019-14.671l-96.356-96.305c-3.758-3.715-6.086-8.87-6.086-14.569 0-2.894 0.6-5.647 1.683-8.143l-0.051 0.132c3.121-7.57 10.443-12.801 18.986-12.801 0.075 0 0.15 0 0.226 0.001h136.232c11.253-0.142 20.338-9.227 20.48-20.466v-211.214c0-11.311-9.169-20.48-20.48-20.48v0h-136.243c-0.064 0.001-0.139 0.001-0.214 0.001-8.543 0-15.865-5.231-18.936-12.665l-0.050-0.136c-1.041-2.373-1.647-5.139-1.647-8.047 0-5.706 2.334-10.868 6.099-14.581l96.36-96.309c3.72-3.77 6.017-8.951 6.017-14.669s-2.297-10.899-6.019-14.671l-149.297-149.297c-3.71-3.732-8.848-6.042-14.525-6.042-0.059 0-0.119 0-0.178 0.001h0.009c-0.050 0-0.11-0.001-0.169-0.001-5.677 0-10.815 2.31-14.524 6.041l-96.308 96.359c-3.696 3.743-8.819 6.068-14.485 6.093h-0.005c-0.123 0.003-0.267 0.004-0.412 0.004-11.311 0-20.48-9.169-20.48-20.48 0-0.109 0.001-0.219 0.003-0.328v0.016-136.243c0-0.016 0-0.034 0-0.053 0-11.362-9.138-20.59-20.466-20.734h-0.014zM512 704c-141.314-0.175-255.825-114.685-256-255.983v-0.017c0.146-141.326 114.674-255.854 255.986-256h0.014c141.326 0.146 255.854 114.674 256 255.986v0.014c-0.175 141.314-114.685 255.825-255.983 256h-0.017zM512 243.2c-113.108 0-204.8 91.692-204.8 204.8v0c0 113.108 91.692 204.8 204.8 204.8v0c113.108 0 204.8-91.692 204.8-204.8v0c0-113.108-91.692-204.8-204.8-204.8v0z" />
<glyph unicode="selectFull" glyph-name="selectFull" d="M512 960c-281.6 0-512-230.4-512-512s230.4-512 512-512 512 230.4 512 512-230.4 512-512 512zM424.96 238.080l-163.84 163.84 40.96 35.84 122.88-128 271.36 271.36 35.84-35.84-307.2-307.2z" />
<glyph unicode="selectEmpty" glyph-name="selectEmpty" d="M512.025-38.406c-268.225 0-486.438 218.2-486.438 486.4 0 203.456 125.575 378.137 303.3 450.613-177.713-72.475-303.263-247.15-303.263-450.613 0-268.2 218.2-486.4 486.4-486.4zM512.025-64.006c-282.337 0-512.038 229.681-512.038 512 0 282.313 229.7 511.994 512.038 511.994 282.313 0 511.988-229.681 511.988-511.994 0-282.319-229.675-512-511.988-512zM512.025 908.794c-254.087 0-460.8-206.713-460.8-460.8s206.713-460.8 460.8-460.8c254.088 0 460.8 206.712 460.8 460.8s-206.712 460.8-460.8 460.8z" />
<glyph unicode="phone" glyph-name="phone" d="M775.027-51.764l216.412 151.391c19.767 13.943 32.521 36.683 32.521 62.402 0 21.015-8.514 40.040-22.282 53.816l-97.275 97.275c-13.769 13.732-32.772 22.223-53.757 22.223s-39.988-8.491-53.759-22.225l-105.721-105.721c-4.578-4.584-10.906-7.419-17.896-7.419-4.5 0-8.726 1.175-12.387 3.236l0.127-0.066c-164.96 92.842-297.723 225.588-387.978 385.51l-2.608 5.024c-1.995 3.534-3.17 7.76-3.17 12.26 0 6.99 2.836 13.317 7.419 17.895v0l105.723 105.723c13.732 13.769 22.223 32.772 22.223 53.757s-8.491 39.988-22.225 53.759l-100.243 100.243c-13.775 13.767-32.801 22.281-53.816 22.281-25.719 0-48.459-12.753-62.242-32.281l-0.16-0.24-151.34-216.36c-7.649-10.819-12.226-24.284-12.226-38.817 0-14.967 4.855-28.801 13.075-40.012l-0.133 0.19 195.369-268.633c63.064-86.094 136.675-159.624 220.030-220.63l2.832-1.977 265.254-192.349c10.914-7.863 24.555-12.575 39.296-12.575 14.585 0 28.093 4.613 39.143 12.461l-0.209-0.141z" />
<glyph unicode="password" glyph-name="password" d="M514.867 800.477l-86.007 86.007c-45.412 45.493-108.191 73.636-177.544 73.636s-132.132-28.143-177.54-73.633l-0.004-0.004c-45.493-45.412-73.636-108.191-73.636-177.544s28.143-132.132 73.633-177.54l86.011-86.011-26.161-26.161c-11.183-11.182-18.1-26.631-18.1-43.695s6.917-32.513 18.1-43.695l377.716-377.716c11.182-11.183 26.631-18.1 43.695-18.1s32.513 6.917 43.695 18.1l407.306 407.306c11.183 11.182 18.1 26.631 18.1 43.695s-6.917 32.513-18.1 43.695l-377.716 377.716c-11.182 11.183-26.631 18.1-43.695 18.1s-32.513-6.917-43.695-18.1v0zM178.619 636.244c-17.621 18.421-28.468 43.449-28.468 71.011 0 56.774 46.025 102.799 102.799 102.799 27.562 0 52.59-10.847 71.049-28.504l-0.038 0.036 86.007-86.007-145.393-145.393z" />
<glyph unicode="mineSelected" glyph-name="mineSelected" horiz-adv-x="886" d="M712.917 691.968c0-148.030-120.002-268.032-268.032-268.032s-268.032 120.002-268.032 268.032c0 148.030 120.002 268.032 268.032 268.032s268.032-120.002 268.032-268.032zM886.187-64c-2.459 242.86-199.906 438.788-443.115 438.788s-440.656-195.928-443.113-438.555l-0.002-0.233z" />
<glyph unicode="mineDefault" glyph-name="mineDefault" horiz-adv-x="886" d="M712.917 691.968c0-148.030-120.002-268.032-268.032-268.032s-268.032 120.002-268.032 268.032c0 148.030 120.002 268.032 268.032 268.032s268.032-120.002 268.032-268.032zM886.187-64c-2.459 242.86-199.906 438.788-443.115 438.788s-440.656-195.928-443.113-438.555l-0.002-0.233z" />
<glyph unicode="manShoes" glyph-name="manShoes" d="M995.442 203.463h-967.111c-8.533 0-14.222 5.689-14.222 14.222v110.933c0 8.533 5.689 14.222 14.222 14.222h967.111c8.533 0 14.222-5.689 14.222-14.222v-110.933c0-8.533-5.689-14.222-14.222-14.222zM42.553 231.908h938.667v82.489h-938.667v-82.489zM995.442 314.396h-967.111c-2.844 0-8.533 2.844-11.378 5.689s-2.844 5.689-2.844 11.378c2.844 91.022 62.578 170.667 147.911 199.111l389.689 159.289c2.844 0 2.844 0 5.689 0h85.333c8.533 0 14.222-5.689 14.222-14.222 0-68.267 54.044-122.311 122.311-122.311s122.311 54.044 122.311 122.311c0 8.533 5.689 14.222 14.222 14.222h82.489c8.533 0 14.222-5.689 14.222-14.222v-347.022c-2.844-8.533-8.533-14.222-17.067-14.222zM45.397 342.841h938.667v318.578h-54.044c-8.533-76.8-71.111-136.533-150.756-136.533s-142.222 59.733-150.756 136.533h-68.267l-386.844-159.289c-71.111-25.6-122.311-88.178-128-159.289zM585.842 450.93c-2.844 0-8.533 0-11.378 2.844l-156.444 156.444c-5.689 5.689-5.689 14.222 0 19.911s14.222 5.689 19.911 0l156.444-156.444c5.689-5.689 5.689-14.222 0-19.911 0 0-2.844-2.844-8.533-2.844zM429.397 413.952c-2.844 0-8.533 0-11.378 2.844l-133.689 133.689c-5.689 5.689-5.689 14.222 0 19.911s14.222 5.689 19.911 0l133.689-133.689c5.689-5.689 5.689-14.222 0-19.911 0-2.844-5.689-2.844-8.533-2.844z" />
<glyph unicode="man" glyph-name="man" d="M701.81 41.244h-381.156l-56.889 392.533-113.778-201.956h-113.778l196.267 483.556 182.044 34.133 25.6 82.489h147.911l25.6-85.333 182.044-31.289 196.267-483.556h-116.622l-113.778 201.956-59.733-392.533zM343.41 69.689h332.8l62.578 449.422 147.911-258.844h59.733l-173.511 432.356-182.044 31.289-25.6 79.644h-108.089l-25.6-76.8-182.044-34.133-173.511-432.356h56.889l147.911 258.844 62.578-449.422z" />
<glyph unicode="inner" glyph-name="inner" d="M653.454 157.867h-284.444l-2.844 11.378c-17.067 119.467-93.867 213.333-170.667 310.044l-8.533 11.378c-36.978 45.511-82.489 82.489-136.533 110.933l-5.689 5.689v139.378h938.667v-139.378l-8.533-2.844c-54.044-25.6-99.556-62.578-136.533-110.933l-8.533-11.378c-79.644-96.711-153.6-190.578-170.667-310.044l-5.689-14.222zM394.61 186.311h233.244c22.756 122.311 96.711 213.333 176.356 312.889l8.533 11.378c36.978 48.356 85.333 85.333 139.378 113.778v93.867h-878.933v-93.867c54.044-28.444 99.556-65.422 139.378-113.778l8.533-11.378c76.8-96.711 153.6-190.578 173.511-312.889z" />
<glyph unicode="homeSelected" glyph-name="homeSelected" horiz-adv-x="1021" d="M507.175 960l-507.175-443.33h187.778v-580.801h213.979v264.461h213.979v-264.461h217.254v580.801h187.778z" />
<glyph unicode="homeDefault" glyph-name="homeDefault" horiz-adv-x="1021" d="M507.175 960l-507.175-443.33h187.778v-580.801h213.979v264.461h213.979v-264.461h217.254v580.801h187.778z" />
<glyph unicode="child" glyph-name="child" d="M745.586 414.635h-469.333v156.444l-116.622-116.622-125.156 125.156 238.933 238.933v8.533l14.222 2.844h133.689v-54.044h173.511v54.044h147.911v-8.533l241.778-241.778-125.156-125.156-116.622 116.622v-156.444zM307.541 443.079h412.444v199.111l145.067-145.067 85.333 85.333-221.867 221.867h-99.556v-54.044h-230.4v54.044h-96.711l-221.867-221.867 85.333-85.333 145.067 145.067v-199.111zM358.741 56.235l-227.556 76.8 150.756 256h457.956l150.756-256-227.556-76.8-153.6 173.511-150.756-173.511zM512.341 272.412l162.133-184.889 176.356 59.733-125.156 210.489h-423.822l-125.156-210.489 176.356-59.733 159.289 184.889z" />
<glyph unicode="cartSelected" glyph-name="cartSelected" d="M881.877 216.747h-739.328l-129.365 666.411h998.101zM344.533 97.152c0-40.86-33.124-73.984-73.984-73.984s-73.984 33.124-73.984 73.984c0 40.86 33.124 73.984 73.984 73.984s73.984-33.124 73.984-73.984zM831.189 97.152c0-40.86-33.124-73.984-73.984-73.984s-73.984 33.124-73.984 73.984c0 40.86 33.124 73.984 73.984 73.984s73.984-33.124 73.984-73.984z" />
<glyph unicode="cartDefault" glyph-name="cartDefault" d="M906.73 197.921h-771.473l-134.99 695.385h1041.497zM346.023 73.127c0-42.637-34.564-77.201-77.201-77.201s-77.201 34.564-77.201 77.201c0 42.637 34.564 77.201 77.201 77.201s77.201-34.564 77.201-77.201zM853.838 73.127c0-42.637-34.564-77.201-77.201-77.201s-77.201 34.564-77.201 77.201c0 42.637 34.564 77.201 77.201 77.201s77.201-34.564 77.201-77.201z" />
<glyph unicode="cart" glyph-name="cart" d="M892.928 149.291h-585.088c-24.704 0.177-45.235 17.823-49.866 41.189l-0.054 0.325-108.928 576.853c-13.219 69.266-66.471 123.177-134.31 137.194l-1.114 0.192c-8.651 0.908-15.336 8.162-15.336 16.979 0 9.426 7.641 17.067 17.067 17.067 1.804 0 3.542-0.28 5.175-0.799l-0.121 0.033c82.537-16.958 146.295-81.461 161.928-163.062l0.206-1.29 108.672-576.768c1.57-7.905 8.434-13.788 16.679-13.824h585.092c8.236 0.032 15.095 5.894 16.664 13.672l0.018 0.109 79.232 414.848c0.769 3.836 1.21 8.245 1.21 12.757 0 37.491-30.392 67.883-67.883 67.883-0.005 0-0.010 0-0.016 0h-661.332c-9.426 0-17.067 7.641-17.067 17.067s7.641 17.067 17.067 17.067h661.333c0.005 0 0.012 0 0.018 0 56.248 0 101.845-45.598 101.845-101.845 0-6.761-0.659-13.368-1.916-19.76l0.106 0.645-79.232-414.848c-4.622-23.807-25.244-41.555-50.034-41.685h-0.014zM360.363-46.251c-49.32 0-89.301 39.982-89.301 89.301s39.982 89.301 89.301 89.301c49.32 0 89.301-39.982 89.301-89.301v0c-0.169-49.252-40.050-89.132-89.285-89.301h-0.016zM360.363 98.389c-30.633 0-55.467-24.833-55.467-55.467s24.833-55.467 55.467-55.467c30.633 0 55.467 24.833 55.467 55.467v0c0 30.633-24.833 55.467-55.467 55.467v0zM840.576-46.251c-49.32 0-89.301 39.982-89.301 89.301s39.982 89.301 89.301 89.301c49.32 0 89.301-39.982 89.301-89.301v0c-0.169-49.252-40.050-89.132-89.285-89.301h-0.016zM840.576 98.389c-30.633 0-55.467-24.833-55.467-55.467s24.833-55.467 55.467-55.467c30.633 0 55.467 24.833 55.467 55.467v0c0 30.633-24.833 55.467-55.467 55.467v0z" />
<glyph unicode="bag" glyph-name="bag" d="M837.063 106.667h-648.533v688.356h645.689v-688.356zM216.974 135.111h588.8v631.467h-588.8v-631.467zM643.641 766.578h-261.689v122.311h261.689v-122.311zM410.396 795.022h204.8v65.422h-204.8v-65.422zM407.552 7.111h-105.244v105.244h105.244v-105.244zM330.752 35.556h48.356v48.356h-48.356v-48.356zM723.285 7.111h-105.244v105.244h105.244v-105.244zM643.641 35.556h48.356v48.356h-48.356v-48.356zM342.13 649.074h28.444v-420.978h-28.444v420.978zM498.574 649.074h28.444v-420.978h-28.444v420.978zM655.019 649.074h28.444v-420.978h-28.444v420.978z" />
<glyph unicode="back" glyph-name="back" d="M512 960v0c-282.77 0-512-229.23-512-512v0 0c0-282.77 229.23-512 512-512v0 0c282.77 0 512 229.23 512 512v0 0c0 282.77-229.23 512-512 512v0zM665.293 223.642h-318.72c-14.202 0.001-26.351 8.79-31.306 21.225l-0.080 0.227c-1.45 3.621-2.291 7.818-2.291 12.212 0 9.803 4.187 18.627 10.869 24.784l0.024 0.021 134.246 122.88c5.973 5.486 13.972 8.848 22.757 8.848 9.804 0 18.63-4.188 24.786-10.872l0.022-0.024c5.501-5.977 8.873-13.987 8.873-22.785 0-9.816-4.198-18.652-10.897-24.809l-70.475-64.636h232.141c83.325 0.087 150.85 67.612 150.938 150.929v0.008c-0.087 83.325-67.612 150.85-150.929 150.938h-318.728c-83.325-0.087-150.85-67.612-150.938-150.929v-0.008c0-18.606-15.083-33.69-33.69-33.69v0c-18.606 0-33.69 15.083-33.69 33.69v0c0.146 120.515 97.803 218.171 218.303 218.317h318.734c120.515-0.146 218.171-97.803 218.317-218.303v-0.014c-0.262-120.408-97.845-217.938-218.249-218.112h-0.017z" />
<glyph unicode="after" glyph-name="after" d="M512 960c-282.77 0-512-229.23-512-512v0c0-282.77 229.23-512 512-512v0c282.77 0 512 229.23 512 512v0c0 282.77-229.23 512-512 512v0zM705.229 491.725h-164.71v-103.066h112.64c18.606 0 33.69-15.083 33.69-33.69v0c0-18.606-15.083-33.69-33.69-33.69v0h-112.64v-163.84c0-18.606-15.083-33.69-33.69-33.69v0c-18.606 0-33.69 15.083-33.69 33.69v0 163.84h-102.4c-18.606 0-33.69 15.083-33.69 33.69v0c0 18.606 15.083 33.69 33.69 33.69v0h102.4v103.066h-154.317c-18.606 0-33.69 15.083-33.69 33.69v0c0 18.606 15.083 33.69 33.69 33.69h135.629l-122.214 159.232c-4.34 5.614-6.956 12.752-6.956 20.501 0 10.841 5.12 20.485 13.074 26.648l0.077 0.057c5.62 4.355 12.77 6.981 20.533 6.981 10.852 0 20.505-5.131 26.666-13.098l0.058-0.078 121.19-157.901 121.19 157.901c6.22 8.031 15.865 13.151 26.705 13.151 7.749 0 14.887-2.616 20.579-7.014l-0.078 0.058c8.031-6.22 13.151-15.865 13.151-26.705 0-7.749-2.616-14.887-7.014-20.579l0.058 0.078-122.214-159.232h145.971c18.606 0 33.69-15.083 33.69-33.69v0c0-18.606-15.083-33.69-33.69-33.69v0z" />
</font>
</defs>
</svg>
